<svg width="520" height="190" viewBox="0 0 520 190" fill="none" xmlns="http://www.w3.org/2000/svg">
<rect width="520" height="190" fill="#242223"/>
<path d="M75.5341 127.783C71.1799 127.783 67.4375 126.892 64.3068 125.111C61.1941 123.312 58.7921 120.811 57.1009 117.608C55.4276 114.387 54.5909 110.654 54.5909 106.408C54.5909 102.143 55.4276 98.41 57.1009 95.2074C58.7921 91.9867 61.1941 89.4858 64.3068 87.7045C67.4375 85.9053 71.1799 85.0057 75.5341 85.0057C79.8883 85.0057 83.6217 85.9053 86.7344 87.7045C89.8651 89.4858 92.267 91.9867 93.9403 95.2074C95.6316 98.41 96.4773 102.143 96.4773 106.408C96.4773 110.654 95.6316 114.387 93.9403 117.608C92.267 120.811 89.8651 123.312 86.7344 125.111C83.6217 126.892 79.8883 127.783 75.5341 127.783ZM75.6151 117.824C77.1984 117.824 78.5388 117.338 79.6364 116.366C80.7339 115.395 81.5706 114.045 82.1463 112.318C82.7401 110.591 83.0369 108.594 83.0369 106.327C83.0369 104.024 82.7401 102.009 82.1463 100.281C81.5706 98.554 80.7339 97.2045 79.6364 96.233C78.5388 95.2614 77.1984 94.7756 75.6151 94.7756C73.9777 94.7756 72.5923 95.2614 71.4588 96.233C70.3433 97.2045 69.4886 98.554 68.8949 100.281C68.3191 102.009 68.0312 104.024 68.0312 106.327C68.0312 108.594 68.3191 110.591 68.8949 112.318C69.4886 114.045 70.3433 115.395 71.4588 116.366C72.5923 117.338 73.9777 117.824 75.6151 117.824ZM103.238 127V85.5455H116.058V93.1023H116.489C117.245 90.3674 118.478 88.3343 120.187 87.0028C121.896 85.6534 123.884 84.9787 126.151 84.9787C126.763 84.9787 127.393 85.0237 128.04 85.1136C128.688 85.1856 129.291 85.3026 129.849 85.4645V96.9347C129.219 96.7187 128.391 96.5478 127.366 96.4219C126.358 96.2959 125.459 96.233 124.667 96.233C123.102 96.233 121.689 96.5838 120.43 97.2855C119.188 97.9692 118.208 98.9318 117.488 100.173C116.786 101.397 116.435 102.836 116.435 104.491V127H103.238ZM144.558 142.545C142.974 142.545 141.481 142.42 140.077 142.168C138.674 141.934 137.469 141.619 136.461 141.223L139.376 131.642C140.671 132.074 141.841 132.326 142.884 132.398C143.946 132.47 144.854 132.299 145.61 131.885C146.384 131.489 146.978 130.778 147.391 129.753L147.904 128.511L133.168 85.5455H146.987L154.624 115.125H155.056L162.802 85.5455H176.701L161.075 130.967C160.319 133.234 159.248 135.232 157.863 136.959C156.496 138.704 154.723 140.071 152.546 141.061C150.387 142.051 147.724 142.545 144.558 142.545ZM194.959 103.358V127H181.761V85.5455H194.311V93.1562H194.77C195.688 90.6193 197.253 88.6312 199.466 87.1918C201.679 85.7344 204.315 85.0057 207.374 85.0057C210.288 85.0057 212.816 85.6624 214.957 86.9758C217.116 88.2713 218.79 90.0885 219.977 92.4276C221.183 94.7486 221.777 97.4654 221.759 100.578V127H208.561V103.169C208.579 100.866 207.994 99.0668 206.807 97.7713C205.637 96.4759 204.009 95.8281 201.922 95.8281C200.536 95.8281 199.313 96.134 198.251 96.7457C197.208 97.3395 196.398 98.1941 195.822 99.3097C195.265 100.425 194.977 101.775 194.959 103.358ZM253.328 85.5455V95.2614H227.176V85.5455H253.328ZM232.655 75.6136H245.853V113.964C245.853 114.774 245.979 115.431 246.23 115.935C246.5 116.42 246.887 116.771 247.391 116.987C247.895 117.185 248.498 117.284 249.199 117.284C249.703 117.284 250.234 117.239 250.792 117.149C251.367 117.041 251.799 116.951 252.087 116.879L254.084 126.406C253.454 126.586 252.564 126.811 251.412 127.081C250.279 127.351 248.92 127.522 247.337 127.594C244.242 127.738 241.588 127.378 239.375 126.514C237.18 125.633 235.498 124.265 234.328 122.412C233.177 120.559 232.619 118.229 232.655 115.422V75.6136ZM271.748 127.702C269.103 127.702 266.755 127.261 264.704 126.379C262.671 125.48 261.061 124.13 259.873 122.331C258.704 120.514 258.119 118.238 258.119 115.503C258.119 113.2 258.524 111.257 259.333 109.673C260.143 108.09 261.259 106.804 262.68 105.814C264.101 104.824 265.739 104.078 267.592 103.574C269.445 103.052 271.424 102.701 273.529 102.521C275.886 102.305 277.785 102.08 279.224 101.847C280.663 101.595 281.707 101.244 282.355 100.794C283.02 100.326 283.353 99.6695 283.353 98.8239V98.6889C283.353 97.3035 282.877 96.233 281.923 95.4773C280.969 94.7216 279.683 94.3438 278.064 94.3438C276.318 94.3438 274.915 94.7216 273.853 95.4773C272.792 96.233 272.117 97.2765 271.829 98.608L259.657 98.1761C260.017 95.6572 260.944 93.4081 262.437 91.429C263.949 89.4318 266.018 87.8665 268.645 86.733C271.289 85.5814 274.465 85.0057 278.172 85.0057C280.816 85.0057 283.254 85.3205 285.485 85.9503C287.717 86.562 289.66 87.4616 291.315 88.6491C292.97 89.8187 294.248 91.258 295.147 92.9673C296.065 94.6766 296.524 96.6288 296.524 98.8239V127H284.109V121.224H283.785C283.047 122.628 282.103 123.815 280.951 124.787C279.818 125.759 278.477 126.487 276.93 126.973C275.401 127.459 273.673 127.702 271.748 127.702ZM275.824 119.065C277.245 119.065 278.522 118.777 279.656 118.202C280.807 117.626 281.725 116.834 282.409 115.827C283.092 114.801 283.434 113.614 283.434 112.264V108.324C283.056 108.522 282.598 108.702 282.058 108.864C281.536 109.026 280.96 109.179 280.331 109.322C279.701 109.466 279.053 109.592 278.387 109.7C277.722 109.808 277.083 109.907 276.471 109.997C275.23 110.195 274.168 110.501 273.287 110.915C272.423 111.329 271.757 111.868 271.289 112.534C270.84 113.182 270.615 113.955 270.615 114.855C270.615 116.223 271.1 117.266 272.072 117.986C273.062 118.705 274.312 119.065 275.824 119.065Z" fill="#F7EFE8"/>
<path d="M312.605 127.783C310.662 127.783 308.998 127.099 307.612 125.732C306.245 124.364 305.57 122.709 305.588 120.766C305.57 118.858 306.245 117.23 307.612 115.881C308.998 114.513 310.662 113.83 312.605 113.83C314.44 113.83 316.06 114.513 317.463 115.881C318.884 117.23 319.604 118.858 319.622 120.766C319.604 122.061 319.262 123.24 318.597 124.301C317.949 125.363 317.094 126.208 316.033 126.838C314.989 127.468 313.847 127.783 312.605 127.783Z" fill="#F55024"/>
</svg>
